<svg xmlns="http://www.w3.org/2000/svg" viewBox="0 0 120 280" fill="none" stroke="currentColor" stroke-width="1.4" stroke-linecap="round" stroke-linejoin="round">
  
  <circle cx="60" cy="28" r="18"></circle>
  
  <line x1="60" y1="46" x2="60" y2="58"></line>
  
  <path d="M22 70 Q60 56 98 70"></path>
  
  <path d="M28 72 L34 152 L46 178 L74 178 L86 152 L92 72"></path>
  
  <line x1="60" y1="60" x2="60" y2="178"></line>
  
  <line x1="56" y1="78" x2="64" y2="78" opacity="0.7"></line>
  <line x1="56" y1="92" x2="64" y2="92" opacity="0.7"></line>
  <line x1="56" y1="106" x2="64" y2="106" opacity="0.7"></line>
  <line x1="56" y1="120" x2="64" y2="120" opacity="0.7"></line>
  <line x1="56" y1="134" x2="64" y2="134" opacity="0.7"></line>
  <line x1="56" y1="148" x2="64" y2="148" opacity="0.7"></line>
  <line x1="56" y1="162" x2="64" y2="162" opacity="0.7"></line>
  
  <path d="M36 86 Q44 110 50 130" opacity="0.5"></path>
  <path d="M84 86 Q76 110 70 130" opacity="0.5"></path>
  
  <path d="M22 72 L18 130 L24 168"></path>
  <path d="M98 72 L102 130 L96 168"></path>
  
  <path d="M40 178 L36 196 L52 196"></path>
  <path d="M80 178 L84 196 L68 196"></path>
  
  <path d="M44 196 L42 250 L46 272"></path>
  <path d="M76 196 L78 250 L74 272"></path>
  <line x1="40" y1="272" x2="52" y2="272"></line>
  <line x1="68" y1="272" x2="80" y2="272"></line>
</svg>