<svg xmlns="http://www.w3.org/2000/svg" viewBox="0 0 120 280" fill="none" stroke="currentColor" stroke-width="1.4" stroke-linecap="round" stroke-linejoin="round">
  
  <circle cx="60" cy="28" r="18"></circle>
  
  <line x1="60" y1="46" x2="60" y2="58"></line>
  
  <path d="M22 70 Q60 56 98 70"></path>
  
  <path d="M28 72 L34 152 L46 178 L74 178 L86 152 L92 72"></path>
  
  <line x1="36" y1="138" x2="84" y2="138" stroke-dasharray="2 4" opacity="0.5"></line>
  
  <path d="M22 72 L18 130 L24 168"></path>
  <path d="M98 72 L102 130 L96 168"></path>
  
  <path d="M40 178 L36 196 L52 196"></path>
  <path d="M80 178 L84 196 L68 196"></path>
  
  <path d="M44 196 L42 250 L46 272"></path>
  <path d="M76 196 L78 250 L74 272"></path>
  
  <line x1="40" y1="272" x2="52" y2="272"></line>
  <line x1="68" y1="272" x2="80" y2="272"></line>
  
  <line x1="60" y1="58" x2="60" y2="178" stroke-dasharray="2 5" opacity="0.4"></line>
</svg>