<svg xmlns="http://www.w3.org/2000/svg" viewBox="0 0 120 280" fill="none" stroke="currentColor" stroke-width="1.4" stroke-linecap="round" stroke-linejoin="round">
  
  <path d="M44 12 Q72 12 72 36 Q72 50 60 52 L52 52 Q42 48 42 36 Q42 18 52 14 Z"></path>
  
  <path d="M72 30 Q78 32 76 38"></path>
  
  <path d="M58 52 L64 70"></path>
  
  <path d="M50 56 Q44 90 50 130 Q56 170 60 200" stroke-dasharray="2 4" opacity="0.5"></path>
  
  <path d="M44 70 Q40 100 44 140 L52 200"></path>
  <path d="M76 70 Q82 100 78 140 L70 200"></path>
  
  <path d="M70 80 L74 130 L72 168"></path>
  
  <path d="M52 200 L48 220 L62 220 L66 200"></path>
  
  <path d="M52 220 L50 268 L54 272"></path>
  <path d="M62 220 L66 268 L62 272"></path>
  
  <line x1="50" y1="272" x2="68" y2="272"></line>
  
  <line x1="60" y1="8" x2="60" y2="272" stroke-dasharray="1 6" opacity="0.35"></line>
</svg>